<svg width="24" height="24" viewBox="0 0 24 24" fill="none" xmlns="http://www.w3.org/2000/svg">
<path d="M21.5981 11.0675C21.4777 10.9767 21.3385 10.9141 21.1907 10.8843C21.0428 10.8545 20.8902 10.8584 20.7441 10.8955C20.5017 10.9632 20.2517 10.9995 20.0001 11.0035C18.3461 11.0035 17.0001 9.65753 16.9971 8.06553C17.0021 8.03153 17.0131 7.93153 17.0141 7.89753C17.0206 7.7412 16.9903 7.58552 16.9255 7.44306C16.8608 7.3006 16.7635 7.17536 16.6414 7.07745C16.5194 6.97954 16.376 6.91169 16.2229 6.8794C16.0698 6.8471 15.9113 6.85126 15.7601 6.89153C15.5126 6.96126 15.2572 6.9989 15.0001 7.00353C13.3461 7.00353 12.0001 5.65753 12.0001 4.00353C12.0001 3.78653 12.0311 3.55953 12.0991 3.28753C12.1376 3.13227 12.1383 2.97005 12.1011 2.81447C12.0639 2.65889 11.99 2.5145 11.8854 2.39341C11.7809 2.27233 11.6489 2.17809 11.5004 2.1186C11.3519 2.05911 11.1913 2.03611 11.0321 2.05153C8.55554 2.28235 6.2551 3.4318 4.58353 5.27363C2.91196 7.11547 1.99034 9.51628 2.00008 12.0035C2.00008 17.5175 6.48608 22.0035 12.0001 22.0035C17.5141 22.0035 22.0001 17.5175 22.0001 12.0035C22.0001 11.9545 21.9971 11.9065 21.9931 11.8435C21.9897 11.6928 21.9525 11.5448 21.8841 11.4105C21.8157 11.2761 21.7179 11.1589 21.5981 11.0675ZM8.50008 6.00353C8.8979 6.00353 9.27943 6.16157 9.56074 6.44287C9.84204 6.72418 10.0001 7.10571 10.0001 7.50353C10.0001 7.90136 9.84204 8.28289 9.56074 8.56419C9.27943 8.8455 8.8979 9.00353 8.50008 9.00353C8.10225 9.00353 7.72072 8.8455 7.43942 8.56419C7.15811 8.28289 7.00008 7.90136 7.00008 7.50353C7.00008 7.10571 7.15811 6.72418 7.43942 6.44287C7.72072 6.16157 8.10225 6.00353 8.50008 6.00353ZM6.50008 14.0035C6.30309 14.0035 6.10804 13.9647 5.92605 13.8894C5.74406 13.814 5.5787 13.7035 5.43942 13.5642C5.30013 13.4249 5.18964 13.2595 5.11426 13.0776C5.03887 12.8956 5.00008 12.7005 5.00008 12.5035C5.00008 12.3065 5.03887 12.1115 5.11426 11.9295C5.18964 11.7475 5.30013 11.5822 5.43942 11.4429C5.5787 11.3036 5.74406 11.1931 5.92605 11.1177C6.10804 11.0423 6.30309 11.0035 6.50008 11.0035C6.8979 11.0035 7.27943 11.1616 7.56074 11.4429C7.84204 11.7242 8.00008 12.1057 8.00008 12.5035C8.00008 12.9014 7.84204 13.2829 7.56074 13.5642C7.27943 13.8455 6.8979 14.0035 6.50008 14.0035ZM9.50008 18.0035C9.10225 18.0035 8.72072 17.8455 8.43942 17.5642C8.15811 17.2829 8.00008 16.9014 8.00008 16.5035C8.00008 16.1057 8.15811 15.7242 8.43942 15.4429C8.72072 15.1616 9.10225 15.0035 9.50008 15.0035C9.8979 15.0035 10.2794 15.1616 10.5607 15.4429C10.842 15.7242 11.0001 16.1057 11.0001 16.5035C11.0001 16.9014 10.842 17.2829 10.5607 17.5642C10.2794 17.8455 9.8979 18.0035 9.50008 18.0035ZM12.0001 11.5035C12.0001 11.1057 12.1581 10.7242 12.4394 10.4429C12.7207 10.1616 13.1023 10.0035 13.5001 10.0035C13.8979 10.0035 14.2794 10.1616 14.5607 10.4429C14.842 10.7242 15.0001 11.1057 15.0001 11.5035C15.0001 11.9014 14.842 12.2829 14.5607 12.5642C14.2794 12.8455 13.8979 13.0035 13.5001 13.0035C13.1023 13.0035 12.7207 12.8455 12.4394 12.5642C12.1581 12.2829 12.0001 11.9014 12.0001 11.5035ZM15.5001 18.0035C15.1023 18.0035 14.7207 17.8455 14.4394 17.5642C14.1581 17.2829 14.0001 16.9014 14.0001 16.5035C14.0001 16.1057 14.1581 15.7242 14.4394 15.4429C14.7207 15.1616 15.1023 15.0035 15.5001 15.0035C15.8979 15.0035 16.2794 15.1616 16.5607 15.4429C16.842 15.7242 17.0001 16.1057 17.0001 16.5035C17.0001 16.9014 16.842 17.2829 16.5607 17.5642C16.2794 17.8455 15.8979 18.0035 15.5001 18.0035Z" fill="#222222"/>
</svg>
