<svg width="34" height="32" viewBox="0 0 34 32" fill="none" xmlns="http://www.w3.org/2000/svg">
<path d="M30.75 10.185C32.2233 10.6583 33.25 12.065 33.25 13.68V20.8233C33.25 22.7167 31.8383 24.3233 29.95 24.4783C29.3833 24.5233 28.8167 24.565 28.25 24.5983V29.75L23.25 24.75C20.9933 24.75 18.76 24.6583 16.55 24.4783C16.0689 24.4394 15.6009 24.3022 15.175 24.075M30.75 10.185C30.4925 10.1021 30.2263 10.049 29.9567 10.0267C25.4932 9.65614 21.0068 9.65614 16.5433 10.0267C14.6583 10.1833 13.25 11.7883 13.25 13.68V20.8233C13.25 22.2183 14.0167 23.4567 15.175 24.075M30.75 10.185V7.06167C30.75 4.36 28.83 2.01834 26.15 1.67C22.7014 1.22299 19.2275 0.999189 15.75 1C12.225 1 8.75333 1.22834 5.35 1.67C2.67 2.01834 0.75 4.36 0.75 7.06167V17.4383C0.75 20.14 2.67 22.4817 5.35 22.83C6.31167 22.955 7.27833 23.0633 8.25 23.1533V31L15.175 24.075" stroke="#616161" stroke-width="1.5" stroke-linecap="round" stroke-linejoin="round"/>
</svg>
