<svg width="32" height="32" viewBox="0 0 32 32" fill="none" xmlns="http://www.w3.org/2000/svg">
<path d="M11 24.75V26.4283C11.0001 27.0852 10.8707 27.7356 10.6194 28.3424C10.368 28.9493 9.99952 29.5006 9.535 29.965L8.5 31H23.5L22.465 29.965C22.0005 29.5006 21.632 28.9493 21.3806 28.3424C21.1293 27.7356 20.9999 27.0852 21 26.4283V24.75M31 4.75V21C31 21.9946 30.6049 22.9484 29.9016 23.6516C29.1984 24.3549 28.2446 24.75 27.25 24.75H4.75C3.75544 24.75 2.80161 24.3549 2.09835 23.6516C1.39509 22.9484 1 21.9946 1 21V4.75M31 4.75C31 3.75544 30.6049 2.80161 29.9016 2.09835C29.1984 1.39509 28.2446 1 27.25 1H4.75C3.75544 1 2.80161 1.39509 2.09835 2.09835C1.39509 2.80161 1 3.75544 1 4.75M31 4.75V16C31 16.9946 30.6049 17.9484 29.9016 18.6516C29.1984 19.3549 28.2446 19.75 27.25 19.75H4.75C3.75544 19.75 2.80161 19.3549 2.09835 18.6516C1.39509 17.9484 1 16.9946 1 16V4.75" stroke="#616161" stroke-width="1.5" stroke-linecap="round" stroke-linejoin="round"/>
</svg>
