<svg width="32" height="32" viewBox="0 0 32 32" fill="none" xmlns="http://www.w3.org/2000/svg">
<path d="M16 31C19.325 30.9998 22.5558 29.8953 25.1851 27.86C27.8143 25.8247 29.6932 22.9738 30.5267 19.755M16 31C12.675 30.9998 9.44424 29.8953 6.81496 27.86C4.18568 25.8247 2.3068 22.9738 1.47334 19.755M16 31C20.1417 31 23.5 24.2833 23.5 16C23.5 7.71667 20.1417 1 16 1M16 31C11.8583 31 8.50001 24.2833 8.50001 16C8.50001 7.71667 11.8583 1 16 1M30.5267 19.755C30.835 18.555 31 17.2967 31 16C31.0041 13.4202 30.3398 10.8833 29.0717 8.63667M30.5267 19.755C26.082 22.219 21.082 23.508 16 23.5C10.73 23.5 5.77834 22.1417 1.47334 19.755M1.47334 19.755C1.15792 18.5283 0.998879 17.2666 1.00001 16C1.00001 13.325 1.70001 10.8117 2.92834 8.63667M16 1C18.6604 0.998891 21.2732 1.7056 23.5703 3.04761C25.8674 4.38962 27.7662 6.31861 29.0717 8.63667M16 1C13.3396 0.998891 10.7268 1.7056 8.42969 3.04761C6.13257 4.38962 4.23385 6.31861 2.92834 8.63667M29.0717 8.63667C25.4428 11.7799 20.8009 13.5069 16 13.5C11.0033 13.5 6.43334 11.6667 2.92834 8.63667" stroke="#616161" stroke-width="1.5" stroke-linecap="round" stroke-linejoin="round"/>
</svg>
