<svg width="20" height="20" viewBox="0 0 20 20" fill="none" xmlns="http://www.w3.org/2000/svg">
<path d="M13.7503 15.625H6.25031M13.7503 15.625C14.4134 15.625 15.0492 15.8884 15.5181 16.3572C15.9869 16.8261 16.2503 17.462 16.2503 18.125H3.75031C3.75031 17.462 4.0137 16.8261 4.48255 16.3572C4.95139 15.8884 5.58727 15.625 6.25031 15.625M13.7503 15.625V12.8125C13.7503 12.295 13.3311 11.875 12.8128 11.875H12.087M6.25031 15.625V12.8125C6.25031 12.295 6.67031 11.875 7.18781 11.875H7.91448M12.087 11.875H7.91448M12.087 11.875C11.6189 11.0666 11.3392 10.1631 11.2686 9.23167M7.91448 11.875C8.38225 11.0666 8.66168 10.163 8.73198 9.23167M11.2686 9.23167C12.1086 9.03782 12.8917 8.65284 13.5586 8.10667M11.2686 9.23167C10.434 9.42417 9.56658 9.42417 8.73198 9.23167M8.73198 9.23167C7.89231 9.0377 7.10868 8.65273 6.44198 8.10667M4.37531 3.53C3.55698 3.64917 2.74698 3.79417 1.94531 3.96333C2.13114 5.05399 2.67329 6.05227 3.48693 6.80198C4.30057 7.55168 5.33979 8.01051 6.44198 8.10667M4.37531 3.53V3.75C4.37531 5.50667 5.18031 7.075 6.44198 8.10667M4.37531 3.53V2.2675C6.21365 2.00833 8.09198 1.875 10.0003 1.875C11.9095 1.875 13.7878 2.00833 15.6253 2.26667V3.53M15.6253 3.53V3.75C15.6253 5.50667 14.8203 7.075 13.5586 8.10667M15.6253 3.53C16.4397 3.6485 17.2501 3.79302 18.0553 3.96333C17.8695 5.05386 17.3275 6.05205 16.514 6.80174C15.7005 7.55143 14.6607 8.01034 13.5586 8.10667" stroke="#66B872" stroke-width="1.5" stroke-linecap="round" stroke-linejoin="round"/>
</svg>
