<svg width="12" height="10" viewBox="0 0 12 10" fill="none" xmlns="http://www.w3.org/2000/svg">
<path d="M7.34475 0.137866C7.145 -0.0523841 6.82825 -0.0448841 6.638 0.155116C6.4475 0.355116 6.4555 0.671616 6.65525 0.862116L10.4908 4.49987H0.5C0.224 4.49987 0 4.72387 0 4.99987C0 5.27587 0.224 5.49987 0.5 5.49987H10.4747L6.65525 9.13787C6.45525 9.32837 6.4475 9.64487 6.638 9.84487C6.73625 9.94787 6.868 9.99987 7 9.99987C7.124 9.99987 7.248 9.95412 7.34475 9.86187L11.707 5.70687C11.896 5.51812 12 5.26712 12 4.99987C12 4.73262 11.896 4.48162 11.6982 4.28437L7.34475 0.137866Z" fill="#66B872"/>
</svg>
