<svg width="18" height="16" viewBox="0 0 18 16" fill="none" xmlns="http://www.w3.org/2000/svg">
<path fill-rule="evenodd" clip-rule="evenodd" d="M0.75 7.99692C0.75 7.798 0.829018 7.60724 0.96967 7.46659C1.11032 7.32593 1.30109 7.24692 1.5 7.24692H14.69L9.22 1.77692C9.08752 1.63474 9.0154 1.4467 9.01882 1.25239C9.02225 1.05809 9.10097 0.872708 9.23838 0.735295C9.37579 0.597882 9.56118 0.51917 9.75548 0.515742C9.94978 0.512314 10.1378 0.584437 10.28 0.716917L17.03 7.46692C17.1705 7.60754 17.2493 7.79817 17.2493 7.99692C17.2493 8.19567 17.1705 8.38629 17.03 8.52692L10.28 15.2769C10.2113 15.3506 10.1285 15.4097 10.0365 15.4507C9.94454 15.4917 9.84523 15.5137 9.74452 15.5155C9.64382 15.5173 9.54379 15.4988 9.4504 15.461C9.35701 15.4233 9.27218 15.3672 9.20096 15.296C9.12974 15.2247 9.0736 15.1399 9.03588 15.0465C8.99816 14.9531 8.97963 14.8531 8.98141 14.7524C8.98318 14.6517 9.00523 14.5524 9.04622 14.4604C9.08721 14.3684 9.14631 14.2856 9.22 14.2169L14.69 8.74692H1.5C1.30109 8.74692 1.11032 8.6679 0.96967 8.52725C0.829018 8.38659 0.75 8.19583 0.75 7.99692Z" fill="#565656"/>
</svg>
