<svg width="18" height="16" viewBox="0 0 18 16" fill="none" xmlns="http://www.w3.org/2000/svg">
<path d="M12.3502 5.79117H16.5102L13.8594 3.13867C13.0059 2.28523 11.9429 1.6715 10.7771 1.35918C9.61122 1.04685 8.38372 1.04694 7.21793 1.35944C6.05215 1.67194 4.98918 2.28583 4.13587 3.13939C3.28257 3.99296 2.66901 5.05612 2.35688 6.222M1.48521 14.3712V10.2112M1.48521 10.2112H5.64521M1.48521 10.2112L4.13521 12.8637C4.98864 13.7171 6.0517 14.3308 7.21753 14.6432C8.38336 14.9555 9.61087 14.9554 10.7767 14.6429C11.9424 14.3304 13.0054 13.7165 13.8587 12.8629C14.712 12.0094 15.3256 10.9462 15.6377 9.78034M16.5102 1.63117V5.7895" stroke="#8B8B8B" stroke-width="1.5" stroke-linecap="round" stroke-linejoin="round"/>
</svg>
