<svg width="42" height="54" viewBox="0 0 42 54" fill="none" xmlns="http://www.w3.org/2000/svg">
<path fill-rule="evenodd" clip-rule="evenodd" d="M9.7478 12C9.7478 9.01631 10.9331 6.15483 13.0428 4.04505C15.1526 1.93526 18.0141 0.75 20.9978 0.75C23.9815 0.75 26.843 1.93526 28.9527 4.04505C31.0625 6.15483 32.2478 9.01631 32.2478 12C32.2478 14.9837 31.0625 17.8452 28.9527 19.955C26.843 22.0647 23.9815 23.25 20.9978 23.25C18.0141 23.25 15.1526 22.0647 13.0428 19.955C10.9331 17.8452 9.7478 14.9837 9.7478 12ZM0.375299 47.2625C0.459599 41.8487 2.6694 36.6851 6.5277 32.8865C10.386 29.0878 15.5833 26.9586 20.9978 26.9586C26.4123 26.9586 31.6096 29.0878 35.4679 32.8865C39.3262 36.6851 41.536 41.8487 41.6203 47.2625C41.6268 47.627 41.5269 47.9854 41.3329 48.294C41.1389 48.6026 40.8591 48.8479 40.5278 49C34.4007 51.8093 27.7382 53.2591 20.9978 53.25C14.0328 53.25 7.4153 51.73 1.4678 49C1.13651 48.8479 0.856737 48.6026 0.662704 48.294C0.468671 47.9854 0.368795 47.627 0.375299 47.2625Z" fill="#DEDEDE"/>
</svg>
