<svg width="20" height="20" viewBox="0 0 20 20" fill="none" xmlns="http://www.w3.org/2000/svg">
<path d="M12.8338 6.41297L12.9511 6.69501L13.2555 6.7194L18.6595 7.1524L18.6596 7.15241C19.38 7.20997 19.6725 8.10853 19.1232 8.57929C19.1232 8.5793 19.1232 8.5793 19.1231 8.57931L15.0062 12.1063L14.7743 12.3049L14.8451 12.6019L16.1021 17.8749L16.1021 17.875C16.2699 18.5784 15.5055 19.1335 14.8891 18.7573C14.8891 18.7573 14.889 18.7573 14.889 18.7572L10.2621 15.9313L10.0015 15.7721L9.74085 15.9313L5.11395 18.7572C4.49771 19.1334 3.73304 18.5777 3.9008 17.8751L3.90084 17.8749L5.15784 12.6019L5.22864 12.3049L4.99676 12.1063L0.879793 8.57931C0.879783 8.5793 0.879774 8.5793 0.879764 8.57929C0.33039 8.10853 0.6229 7.20997 1.34329 7.15241L1.3434 7.1524L6.7474 6.7194L7.05187 6.69501L7.16915 6.41297L9.25112 1.40603C9.52831 0.739655 10.4746 0.739655 10.7518 1.40603L12.8338 6.41297Z" fill="#FAFAFA" stroke="#CACACA"/>
</svg>
