<svg width="24" height="24" viewBox="0 0 24 24" fill="none" xmlns="http://www.w3.org/2000/svg">
<path fill-rule="evenodd" clip-rule="evenodd" d="M1.5 5.625C1.5 4.589 2.34 3.75 3.375 3.75H20.625C21.66 3.75 22.5 4.59 22.5 5.625V18.375C22.5 19.41 21.66 20.25 20.625 20.25H3.375C2.87772 20.25 2.40081 20.0525 2.04917 19.7008C1.69754 19.3492 1.5 18.8723 1.5 18.375V5.625ZM21 9.375C21 9.27554 20.9605 9.18016 20.8902 9.10983C20.8198 9.03951 20.7245 9 20.625 9H13.125C13.0255 9 12.9302 9.03951 12.8598 9.10983C12.7895 9.18016 12.75 9.27554 12.75 9.375V10.875C12.75 11.082 12.918 11.25 13.125 11.25H20.625C20.7245 11.25 20.8198 11.2105 20.8902 11.1402C20.9605 11.0698 21 10.9745 21 10.875V9.375ZM21 13.125C21 13.0255 20.9605 12.9302 20.8902 12.8598C20.8198 12.7895 20.7245 12.75 20.625 12.75H13.125C13.0255 12.75 12.9302 12.7895 12.8598 12.8598C12.7895 12.9302 12.75 13.0255 12.75 13.125V14.625C12.75 14.832 12.918 15 13.125 15H20.625C20.7245 15 20.8198 14.9605 20.8902 14.8902C20.9605 14.8198 21 14.7245 21 14.625V13.125ZM21 16.875C21 16.7755 20.9605 16.6802 20.8902 16.6098C20.8198 16.5395 20.7245 16.5 20.625 16.5H13.125C13.0255 16.5 12.9302 16.5395 12.8598 16.6098C12.7895 16.6802 12.75 16.7755 12.75 16.875V18.375C12.75 18.582 12.918 18.75 13.125 18.75H20.625C20.7245 18.75 20.8198 18.7105 20.8902 18.6402C20.9605 18.5698 21 18.4745 21 18.375V16.875ZM10.875 18.75C10.9745 18.75 11.0698 18.7105 11.1402 18.6402C11.2105 18.5698 11.25 18.4745 11.25 18.375V16.875C11.25 16.7755 11.2105 16.6802 11.1402 16.6098C11.0698 16.5395 10.9745 16.5 10.875 16.5H3.375C3.27554 16.5 3.18016 16.5395 3.10983 16.6098C3.03951 16.6802 3 16.7755 3 16.875V18.375C3 18.582 3.168 18.75 3.375 18.75H10.875ZM3.375 15H10.875C10.9745 15 11.0698 14.9605 11.1402 14.8902C11.2105 14.8198 11.25 14.7245 11.25 14.625V13.125C11.25 13.0255 11.2105 12.9302 11.1402 12.8598C11.0698 12.7895 10.9745 12.75 10.875 12.75H3.375C3.27554 12.75 3.18016 12.7895 3.10983 12.8598C3.03951 12.9302 3 13.0255 3 13.125V14.625C3 14.832 3.168 15 3.375 15ZM3.375 11.25H10.875C10.9745 11.25 11.0698 11.2105 11.1402 11.1402C11.2105 11.0698 11.25 10.9745 11.25 10.875V9.375C11.25 9.27554 11.2105 9.18016 11.1402 9.10983C11.0698 9.03951 10.9745 9 10.875 9H3.375C3.27554 9 3.18016 9.03951 3.10983 9.10983C3.03951 9.18016 3 9.27554 3 9.375V10.875C3 11.082 3.168 11.25 3.375 11.25Z" fill="#747474"/>
</svg>
