<svg width="24" height="24" viewBox="0 0 24 24" fill="none" xmlns="http://www.w3.org/2000/svg">
<path d="M10.4679 8.74556C10.6949 8.56556 10.9649 8.43456 11.2539 8.35156V11.1466C10.9686 11.0684 10.7015 10.9349 10.4679 10.7536C10.0739 10.4406 9.92188 10.0726 9.92188 9.74956C9.92188 9.42656 10.0739 9.05856 10.4679 8.74556ZM12.7539 15.6616V12.8376C13.1009 12.9226 13.4179 13.0656 13.6749 13.2586C14.1019 13.5786 14.2539 13.9446 14.2539 14.2496C14.2539 14.5546 14.1019 14.9206 13.6749 15.2406C13.3992 15.4411 13.086 15.5849 12.7539 15.6616Z" fill="#747474"/>
<path fill-rule="evenodd" clip-rule="evenodd" d="M12 2.25C6.615 2.25 2.25 6.615 2.25 12C2.25 17.385 6.615 21.75 12 21.75C17.385 21.75 21.75 17.385 21.75 12C21.75 6.615 17.385 2.25 12 2.25ZM12.75 6C12.75 5.80109 12.671 5.61032 12.5303 5.46967C12.3897 5.32902 12.1989 5.25 12 5.25C11.8011 5.25 11.6103 5.32902 11.4697 5.46967C11.329 5.61032 11.25 5.80109 11.25 6V6.816C10.6229 6.92153 10.0318 7.18132 9.53 7.572C8.818 8.138 8.418 8.922 8.418 9.75C8.418 10.579 8.818 11.362 9.531 11.928C10.033 12.328 10.633 12.575 11.25 12.684V15.662C10.9178 15.585 10.6046 15.4418 10.329 15.241L9.45 14.581C9.37121 14.5219 9.28155 14.4789 9.18614 14.4545C9.09073 14.43 8.99144 14.4246 8.89393 14.4385C8.69702 14.4667 8.51935 14.5719 8.4 14.731C8.28065 14.8901 8.22941 15.0902 8.25754 15.2871C8.28567 15.484 8.39087 15.6617 8.55 15.781L9.429 16.441C9.962 16.841 10.598 17.086 11.25 17.191V18C11.25 18.1989 11.329 18.3897 11.4697 18.5303C11.6103 18.671 11.8011 18.75 12 18.75C12.1989 18.75 12.3897 18.671 12.5303 18.5303C12.671 18.3897 12.75 18.1989 12.75 18V17.19C13.4086 17.091 14.0334 16.834 14.571 16.441C15.316 15.882 15.75 15.097 15.75 14.25C15.75 13.403 15.316 12.618 14.571 12.059C14.0335 11.6655 13.4087 11.4082 12.75 11.309V8.354C13.04 8.436 13.309 8.567 13.536 8.747L13.951 9.077C14.1068 9.20072 14.3054 9.25748 14.5031 9.23479C14.7007 9.2121 14.8813 9.11181 15.005 8.956C15.1287 8.80019 15.1855 8.6016 15.1628 8.40394C15.1401 8.20628 15.0398 8.02572 14.884 7.902L14.469 7.572C13.9674 7.18183 13.3767 6.92239 12.75 6.817V6Z" fill="#747474"/>
</svg>
