<svg width="24" height="24" viewBox="0 0 24 24" fill="none" xmlns="http://www.w3.org/2000/svg">
<path fill-rule="evenodd" clip-rule="evenodd" d="M12.0026 6.75137C12.0024 5.93137 12.1943 5.12272 12.5628 4.39022C12.9314 3.65773 13.4664 3.02175 14.1251 2.53326C14.7837 2.04476 15.5476 1.71734 16.3555 1.57722C17.1634 1.4371 17.993 1.48818 18.7776 1.72637C18.9016 1.76394 19.0138 1.833 19.1032 1.92682C19.1926 2.02064 19.2561 2.13602 19.2876 2.2617C19.3191 2.38739 19.3176 2.51911 19.283 2.644C19.2485 2.7689 19.1822 2.88272 19.0906 2.97437L15.7706 6.29337C15.8336 6.76837 16.0466 7.22737 16.4116 7.59237C16.7766 7.95737 17.2356 8.17037 17.7116 8.23237L21.0296 4.91337C21.1213 4.82176 21.2351 4.75546 21.36 4.72093C21.4849 4.6864 21.6166 4.68482 21.7423 4.71635C21.868 4.74787 21.9833 4.81142 22.0772 4.9008C22.171 4.99019 22.24 5.10235 22.2776 5.22637C22.5268 6.04722 22.5711 6.91664 22.4065 7.75857C22.242 8.60049 21.8736 9.38926 21.3337 10.0559C20.7938 10.7225 20.0987 11.2467 19.3094 11.5825C18.52 11.9184 17.6603 12.0556 16.8056 11.9824C15.7876 11.8964 14.9356 12.0824 14.4966 12.6164L7.3466 21.3014C7.05384 21.6551 6.69043 21.9439 6.27964 22.1491C5.86886 22.3543 5.41974 22.4714 4.96106 22.493C4.50238 22.5147 4.04424 22.4403 3.61597 22.2746C3.18771 22.1089 2.79876 21.8557 2.47403 21.531C2.14929 21.2063 1.89594 20.8174 1.73018 20.3892C1.56442 19.961 1.48992 19.5029 1.51144 19.0442C1.53295 18.5855 1.65002 18.1363 1.85514 17.7255C2.06025 17.3147 2.3489 16.9512 2.7026 16.6584L11.3866 9.50737C11.9196 9.06737 12.1066 8.21637 12.0206 7.19837C12.0084 7.04969 12.0024 6.90056 12.0026 6.75137ZM4.1196 19.1264C4.1196 18.9275 4.19862 18.7367 4.33927 18.596C4.47992 18.4554 4.67069 18.3764 4.8696 18.3764H4.8776C5.07651 18.3764 5.26728 18.4554 5.40793 18.596C5.54858 18.7367 5.6276 18.9275 5.6276 19.1264V19.1344C5.6276 19.3333 5.54858 19.524 5.40793 19.6647C5.26728 19.8054 5.07651 19.8844 4.8776 19.8844H4.8696C4.67069 19.8844 4.47992 19.8054 4.33927 19.6647C4.19862 19.524 4.1196 19.3333 4.1196 19.1344V19.1264Z" fill="#747474"/>
</svg>
