<svg width="24" height="24" viewBox="0 0 24 24" fill="none" xmlns="http://www.w3.org/2000/svg">
<path fill-rule="evenodd" clip-rule="evenodd" d="M12.0028 2.25C12.2017 2.25 12.3925 2.32902 12.5331 2.46967C12.6738 2.61032 12.7528 2.80109 12.7528 3V3.756C15.828 3.80199 18.8922 4.1368 21.9048 4.756C22.0872 4.79304 22.2494 4.89661 22.3597 5.04658C22.47 5.19654 22.5206 5.38217 22.5017 5.56737C22.4827 5.75258 22.3955 5.92411 22.2571 6.04861C22.1187 6.17311 21.9389 6.24169 21.7528 6.241H19.8348L22.3088 16.365C22.3484 16.5268 22.3331 16.6971 22.2652 16.8492C22.1973 17.0013 22.0807 17.1265 21.9338 17.205C20.9553 17.7285 19.8625 18.0016 18.7528 18C17.6431 18.0016 16.5503 17.7285 15.5718 17.205C15.4249 17.1265 15.3083 17.0013 15.2404 16.8492C15.1725 16.6971 15.1571 16.5268 15.1968 16.365L17.6708 6.241H12.7528V19.521C14.0458 19.597 15.2868 19.864 16.4498 20.297C16.6147 20.3583 16.7528 20.4756 16.84 20.6285C16.9271 20.7813 16.9578 20.9599 16.9266 21.1331C16.8953 21.3062 16.8042 21.4629 16.6692 21.5757C16.5341 21.6885 16.3637 21.7502 16.1878 21.75H7.81778C7.64183 21.7502 7.47143 21.6885 7.33638 21.5757C7.20133 21.4629 7.11023 21.3062 7.07901 21.1331C7.04778 20.9599 7.07843 20.7813 7.16559 20.6285C7.25274 20.4756 7.39086 20.3583 7.55578 20.297C8.71778 19.864 9.95978 19.597 11.2528 19.522V6.24H6.33478L8.80878 16.364C8.84842 16.5258 8.83309 16.6961 8.76519 16.8482C8.69729 17.0003 8.58069 17.1255 8.43378 17.204C7.4554 17.7278 6.36256 18.0013 5.25278 18C4.14308 18.0016 3.05025 17.7285 2.07178 17.205C1.92487 17.1265 1.80827 17.0013 1.74037 16.8492C1.67247 16.6971 1.65714 16.5268 1.69678 16.365L4.17078 6.241H2.25278C2.06661 6.24169 1.88684 6.17311 1.74843 6.04861C1.61002 5.92411 1.52286 5.75258 1.5039 5.56737C1.48494 5.38217 1.53554 5.19654 1.64586 5.04658C1.75618 4.89661 1.91833 4.79304 2.10078 4.756C5.1134 4.13679 8.17753 3.80199 11.2528 3.756V3C11.2528 2.80109 11.3318 2.61032 11.4724 2.46967C11.6131 2.32902 11.8039 2.25 12.0028 2.25ZM16.8808 15.793L18.7528 8.131L20.6248 15.793H16.8808ZM7.12478 15.793L5.25278 8.131L3.38078 15.793H7.12478Z" fill="#747474"/>
</svg>
