<svg width="530" height="195" viewBox="0 0 530 195" fill="none" xmlns="http://www.w3.org/2000/svg">
<path d="M211.987 61.5996C215.261 62.7446 217.826 64.544 219.681 66.9977C221.536 69.3969 222.464 72.3141 222.464 75.7493C222.464 80.7658 220.445 84.6372 216.407 87.3636C212.369 90.0899 206.531 91.4531 198.891 91.4531H167.952V34.1998H197.254C204.566 34.1998 210.132 35.5629 213.952 38.2893C217.771 40.9611 219.681 44.5871 219.681 49.1674C219.681 51.8938 218.999 54.3475 217.635 56.5286C216.325 58.6551 214.443 60.3455 211.987 61.5996ZM183.995 45.8958V56.9375H195.126C200.583 56.9375 203.311 55.0836 203.311 51.3758C203.311 47.7225 200.583 45.8958 195.126 45.8958H183.995ZM197.582 79.7571C203.257 79.7571 206.094 77.8214 206.094 73.9499C206.094 70.0785 203.257 68.1428 197.582 68.1428H183.995V79.7571H197.582Z" fill="white"/>
<path d="M255.904 76.2401H247.064V91.4531H230.858V34.1998H257.05C262.234 34.1998 266.736 35.0722 270.555 36.8171C274.375 38.5074 277.322 40.9611 279.395 44.1782C281.469 47.3408 282.505 51.0759 282.505 55.3835C282.505 59.5275 281.523 63.1536 279.559 66.2616C277.649 69.3151 274.893 71.7143 271.292 73.4592L283.651 91.4531H266.299L255.904 76.2401ZM266.135 55.3835C266.135 52.7117 265.29 50.6396 263.598 49.1674C261.907 47.6952 259.396 46.9591 256.068 46.9591H247.064V63.7261H256.068C259.396 63.7261 261.907 63.0173 263.598 61.5996C265.29 60.1273 266.135 58.0553 266.135 55.3835Z" fill="white"/>
<path d="M320.339 92.5982C314.282 92.5982 308.826 91.3168 303.969 88.754C299.167 86.1913 295.375 82.647 292.592 78.1213C289.864 73.5955 288.5 68.4972 288.5 62.8264C288.5 57.1556 289.864 52.0574 292.592 47.5316C295.375 43.0059 299.167 39.4616 303.969 36.8988C308.826 34.3361 314.282 33.0547 320.339 33.0547C326.396 33.0547 331.825 34.3361 336.627 36.8988C341.484 39.4616 345.276 43.0059 348.004 47.5316C350.787 52.0574 352.179 57.1556 352.179 62.8264C352.179 68.4972 350.787 73.5955 348.004 78.1213C345.276 82.647 341.484 86.1913 336.627 88.754C331.825 91.3168 326.396 92.5982 320.339 92.5982ZM320.339 79.1845C323.231 79.1845 325.85 78.5029 328.197 77.1398C330.543 75.7766 332.398 73.8681 333.763 71.4144C335.127 68.9062 335.809 66.0435 335.809 62.8264C335.809 59.6093 335.127 56.7739 333.763 54.3202C332.398 51.812 330.543 49.8763 328.197 48.5131C325.85 47.1499 323.231 46.4683 320.339 46.4683C317.447 46.4683 314.828 47.1499 312.482 48.5131C310.135 49.8763 308.28 51.812 306.916 54.3202C305.552 56.7739 304.87 59.6093 304.87 62.8264C304.87 66.0435 305.552 68.9062 306.916 71.4144C308.28 73.8681 310.135 75.7766 312.482 77.1398C314.828 78.5029 317.447 79.1845 320.339 79.1845Z" fill="white"/>
<path d="M382.766 70.6783L376.709 77.1398V91.4531H360.667V34.1998H376.709V58.0008L398.891 34.1998H416.734L393.325 59.5548L417.962 91.4531H399.136L382.766 70.6783Z" fill="white"/>
<path d="M468.214 78.9392V91.4531H422.214V34.1998H467.15V46.7137H438.257V56.365H463.712V68.47H438.257V78.9392H468.214Z" fill="white"/>
<path d="M502.253 76.2401H493.413V91.4531H477.207V34.1998H503.399C508.583 34.1998 513.084 35.0722 516.904 36.8171C520.724 38.5074 523.67 40.9611 525.744 44.1782C527.817 47.3408 528.854 51.0759 528.854 55.3835C528.854 59.5275 527.872 63.1536 525.908 66.2616C523.998 69.3151 521.242 71.7143 517.641 73.4592L530 91.4531H512.648L502.253 76.2401ZM512.484 55.3835C512.484 52.7117 511.638 50.6396 509.947 49.1674C508.255 47.6952 505.745 46.9591 502.417 46.9591H493.413V63.7261H502.417C505.745 63.7261 508.255 63.0173 509.947 61.5996C511.638 60.1273 512.484 58.0553 512.484 55.3835Z" fill="white"/>
<path d="M222.464 103.35V160.603H209.123L183.831 130.095V160.603H167.952V103.35H181.294L206.585 133.858V103.35H222.464Z" fill="white"/>
<path d="M279.895 148.089V160.603H233.896V103.35H278.831V115.864H249.938V125.515H275.393V137.62H249.938V148.089H279.895Z" fill="white"/>
<path d="M327.276 149.48H303.048L298.547 160.603H282.013L307.305 103.35H323.265L348.639 160.603H331.778L327.276 149.48ZM322.529 137.538L315.162 119.217L307.796 137.538H322.529Z" fill="white"/>
<path d="M378.279 145.39H369.439V160.603H353.233V103.35H379.425C384.609 103.35 389.111 104.222 392.93 105.967C396.75 107.658 399.697 110.111 401.77 113.328C403.844 116.491 404.88 120.226 404.88 124.534C404.88 128.678 403.898 132.304 401.934 135.412C400.024 138.465 397.268 140.864 393.667 142.609L406.026 160.603H388.674L378.279 145.39ZM388.51 124.534C388.51 121.862 387.665 119.79 385.973 118.318C384.282 116.845 381.772 116.109 378.443 116.109H369.439V132.876H378.443C381.772 132.876 384.282 132.167 385.973 130.75C387.665 129.278 388.51 127.205 388.51 124.534Z" fill="white"/>
<path d="M129.746 65.431C131.467 64.9942 132.684 63.4492 132.604 61.6845C131.02 26.7548 101.934 0 66.3548 0C29.762 0 0 29.6052 0 65.9932C0 74.7768 2.07011 84.1331 6.1852 94.0101C6.91069 95.7514 8.83041 96.6573 10.6641 96.181L30.4811 91.0333C32.6856 90.4607 33.9114 88.1359 33.275 85.9601C31.8702 81.1571 31.1554 76.6797 31.1554 72.5865C31.1554 50.5491 46.9453 32.6204 66.3548 32.6204C84.2828 32.6204 99.1227 47.9165 101.284 67.6181C101.559 70.1255 103.944 71.98 106.401 71.3563L129.746 65.431Z" fill="white"/>
<path d="M99.7918 193.229C98.5719 193.137 97.8684 191.906 97.4068 190.773C89.7243 171.579 82.0418 152.386 74.3593 133.192C74.0044 132.279 73.4973 131.772 72.6098 131.392C53.3909 123.735 34.1973 116.052 15.0037 108.37C14.5473 108.167 13.9388 108.116 13.6599 107.787C13.1782 107.203 12.5443 106.468 12.595 105.809C12.6203 105.175 13.3049 104.49 13.8627 103.983C14.167 103.679 14.7755 103.679 15.2572 103.552C53.112 93.5879 90.9667 83.6234 128.771 73.659C128.898 73.6336 129.024 73.6083 129.176 73.5576C131.56 72.9491 132.828 74.2168 132.219 76.6001C129.176 88.2127 126.109 99.7998 123.066 111.412C116.093 137.908 109.121 164.404 102.123 190.925C101.971 191.432 101.869 191.99 101.59 192.421C101.206 193.004 100.519 193.284 99.7918 193.229Z" fill="#66B872"/>
</svg>
