<svg width="34" height="31" viewBox="0 0 34 31" fill="none" xmlns="http://www.w3.org/2000/svg">
<path d="M25.4296 20.8683C26.2093 20.3359 27.1237 20.0351 28.0672 20.0007C29.0107 19.9663 29.9446 20.1998 30.761 20.674C31.5773 21.1483 32.2427 21.844 32.6802 22.6806C33.1176 23.5173 33.3093 24.4607 33.2329 25.4017C31.2332 26.1006 29.1092 26.3725 26.9979 26.2C26.9915 24.311 26.4475 22.4613 25.4296 20.87C24.5261 19.453 23.2798 18.2867 21.806 17.4792C20.3322 16.6716 18.6785 16.2489 16.9979 16.25C15.3177 16.2491 13.6643 16.672 12.1908 17.4796C10.7173 18.2871 9.47128 19.4532 8.56794 20.87M26.9963 26.1983L26.9979 26.25C26.9979 26.625 26.9779 26.995 26.9363 27.36C23.9119 29.0952 20.4848 30.0056 16.9979 30C13.3813 30 9.98627 29.04 7.05961 27.36C7.01676 26.9743 6.99617 26.5864 6.99794 26.1983M6.99794 26.1983C4.88732 26.3771 2.76445 26.1061 0.766274 25.4033C0.690192 24.4626 0.881931 23.5195 1.31932 22.6832C1.75671 21.8468 2.42189 21.1513 3.23794 20.6771C4.054 20.203 4.9876 19.9694 5.9308 20.0036C6.87401 20.0377 7.78829 20.3381 8.56794 20.87M6.99794 26.1983C7.00393 24.3095 7.55065 22.4614 8.56794 20.87M21.9979 6.25C21.9979 7.57608 21.4712 8.84785 20.5335 9.78553C19.5958 10.7232 18.324 11.25 16.9979 11.25C15.6719 11.25 14.4001 10.7232 13.4624 9.78553C12.5247 8.84785 11.9979 7.57608 11.9979 6.25C11.9979 4.92392 12.5247 3.65215 13.4624 2.71447C14.4001 1.77678 15.6719 1.25 16.9979 1.25C18.324 1.25 19.5958 1.77678 20.5335 2.71447C21.4712 3.65215 21.9979 4.92392 21.9979 6.25ZM31.9979 11.25C31.9979 11.7425 31.9009 12.2301 31.7125 12.6851C31.524 13.14 31.2478 13.5534 30.8996 13.9016C30.5514 14.2499 30.138 14.5261 29.683 14.7145C29.228 14.903 28.7404 15 28.2479 15C27.7555 15 27.2678 14.903 26.8129 14.7145C26.3579 14.5261 25.9445 14.2499 25.5963 13.9016C25.2481 13.5534 24.9718 13.14 24.7834 12.6851C24.5949 12.2301 24.4979 11.7425 24.4979 11.25C24.4979 10.2554 24.893 9.30161 25.5963 8.59835C26.2996 7.89509 27.2534 7.5 28.2479 7.5C29.2425 7.5 30.1963 7.89509 30.8996 8.59835C31.6029 9.30161 31.9979 10.2554 31.9979 11.25ZM9.49794 11.25C9.49794 11.7425 9.40094 12.2301 9.21249 12.6851C9.02403 13.14 8.74781 13.5534 8.39959 13.9016C8.05137 14.2499 7.63797 14.5261 7.183 14.7145C6.72803 14.903 6.2404 15 5.74794 15C5.25548 15 4.76785 14.903 4.31288 14.7145C3.85791 14.5261 3.44451 14.2499 3.09629 13.9016C2.74807 13.5534 2.47185 13.14 2.28339 12.6851C2.09494 12.2301 1.99794 11.7425 1.99794 11.25C1.99794 10.2554 2.39303 9.30161 3.09629 8.59835C3.79955 7.89509 4.75338 7.5 5.74794 7.5C6.7425 7.5 7.69633 7.89509 8.39959 8.59835C9.10285 9.30161 9.49794 10.2554 9.49794 11.25Z" stroke="#616161" stroke-width="1.5" stroke-linecap="round" stroke-linejoin="round"/>
</svg>
