<svg width="20" height="20" viewBox="0 0 20 20" fill="none" xmlns="http://www.w3.org/2000/svg">
<path fill-rule="evenodd" clip-rule="evenodd" d="M10 0.25C4.615 0.25 0.25 4.615 0.25 10C0.25 15.385 4.615 19.75 10 19.75C15.385 19.75 19.75 15.385 19.75 10C19.75 4.615 15.385 0.25 10 0.25ZM13 10.75C13.1989 10.75 13.3897 10.671 13.5303 10.5303C13.671 10.3897 13.75 10.1989 13.75 10C13.75 9.80109 13.671 9.61032 13.5303 9.46967C13.3897 9.32902 13.1989 9.25 13 9.25H7C6.80109 9.25 6.61032 9.32902 6.46967 9.46967C6.32902 9.61032 6.25 9.80109 6.25 10C6.25 10.1989 6.32902 10.3897 6.46967 10.5303C6.61032 10.671 6.80109 10.75 7 10.75H13Z" fill="#FF3D3D"/>
</svg>
