<svg width="16" height="16" viewBox="0 0 16 16" fill="none" xmlns="http://www.w3.org/2000/svg">
<path d="M15.6211 13.6864L11.9426 10.0076C12.5676 9.0126 12.9303 7.83654 12.9303 6.57441C12.9303 3.00366 10.0356 0.109375 6.46503 0.109375C2.89442 0.109375 0 3.00366 0 6.57441C0 10.1453 2.89429 13.0393 6.46503 13.0393C7.83856 13.0393 9.1108 12.6099 10.1577 11.8802L13.7924 15.5152C14.045 15.7675 14.3761 15.8932 14.7067 15.8932C15.0378 15.8932 15.3685 15.7675 15.6215 15.5152C16.1262 15.01 16.1262 14.1915 15.6211 13.6864ZM6.46503 10.9447C4.05162 10.9447 2.09498 8.98822 2.09498 6.57468C2.09498 4.16113 4.05162 2.20449 6.46503 2.20449C8.87858 2.20449 10.8351 4.16113 10.8351 6.57468C10.8351 8.98822 8.87858 10.9447 6.46503 10.9447Z" fill="white"/>
</svg>
