<svg width="14" height="14" viewBox="0 0 14 14" fill="none" xmlns="http://www.w3.org/2000/svg">
<path fill-rule="evenodd" clip-rule="evenodd" d="M0.125 7.00003C0.125 6.83427 0.190848 6.6753 0.308058 6.55809C0.425268 6.44088 0.58424 6.37503 0.75 6.37503H11.7417L7.18333 1.8167C7.07293 1.69822 7.01283 1.54152 7.01569 1.3796C7.01854 1.21768 7.08414 1.06319 7.19865 0.948683C7.31316 0.834172 7.46765 0.768579 7.62956 0.765722C7.79148 0.762866 7.94819 0.822968 8.06667 0.933368L13.6917 6.55837C13.8087 6.67556 13.8744 6.83441 13.8744 7.00003C13.8744 7.16566 13.8087 7.32451 13.6917 7.4417L8.06667 13.0667C8.00945 13.1281 7.94045 13.1774 7.86378 13.2115C7.78712 13.2457 7.70435 13.264 7.62043 13.2655C7.53652 13.267 7.45316 13.2516 7.37534 13.2201C7.29751 13.1887 7.22682 13.1419 7.16747 13.0826C7.10812 13.0232 7.06133 12.9525 7.0299 12.8747C6.99846 12.7969 6.98303 12.7135 6.98451 12.6296C6.98599 12.5457 7.00436 12.4629 7.03852 12.3863C7.07268 12.3096 7.12193 12.2406 7.18333 12.1834L11.7417 7.62503H0.75C0.58424 7.62503 0.425268 7.55919 0.308058 7.44198C0.190848 7.32477 0.125 7.16579 0.125 7.00003Z" fill="white"/>
</svg>
