<svg width="16" height="16" viewBox="0 0 16 16" fill="none" xmlns="http://www.w3.org/2000/svg">
<path d="M4.0036 9.8645L3.06085 13.8192C2.8576 14.6705 3.78385 15.344 4.53085 14.888L4.27033 14.4612M4.0036 9.8645L4.27033 14.4612M4.0036 9.8645L0.915851 7.21925M4.0036 9.8645L0.915851 7.21925M4.27033 14.4612L7.74048 12.3418L8.0011 12.1826L8.26172 12.3418L11.7319 14.4612C11.7319 14.4613 11.7319 14.4613 11.732 14.4613C12.0994 14.6855 12.5551 14.3547 12.455 13.9353L12.455 13.9352L11.5122 9.98044L11.4414 9.68343L11.6733 9.48479L14.761 6.83956C14.761 6.83955 14.761 6.83954 14.7611 6.83954C15.0887 6.55878 14.9142 6.02322 14.4848 5.98891L14.4847 5.9889L10.4317 5.66415L10.1272 5.63976L10.0099 5.35772L8.44845 1.60253C8.44844 1.60251 8.44843 1.60249 8.44842 1.60247C8.28321 1.20543 7.719 1.20543 7.55378 1.60247C7.55377 1.60249 7.55376 1.60251 7.55375 1.60253L5.99228 5.35772L5.875 5.63976L5.57054 5.66415L1.51754 5.9889L1.51742 5.98891C1.08803 6.02322 0.913523 6.55878 1.24115 6.83954C1.24116 6.83954 1.24117 6.83955 1.24118 6.83956L4.3289 9.48479L4.56077 9.68343L4.48997 9.98044L3.54722 13.9352L3.54718 13.9354C3.44718 14.3542 3.90302 14.6853 4.27023 14.4613C4.27027 14.4613 4.2703 14.4613 4.27033 14.4612ZM0.915851 7.21925C0.2506 6.64925 0.604601 5.56025 1.4776 5.4905M0.915851 7.21925L1.4776 5.4905M1.4776 5.4905L5.5306 5.16575L1.4776 5.4905Z" stroke="#FFC132"/>
</svg>
