<svg width="24" height="24" viewBox="0 0 24 24" fill="none" xmlns="http://www.w3.org/2000/svg">
<path d="M14.8243 4.25781C14.6257 4.6135 14.4487 4.98083 14.2943 5.35781C12.7771 5.11786 11.2316 5.11786 9.71431 5.35781C9.5599 4.98083 9.38291 4.6135 9.18431 4.25781C7.7551 4.50201 6.36572 4.93935 5.05431 5.55781C2.70925 8.9421 1.64575 13.0508 2.05431 17.1478C3.58255 18.2967 5.29777 19.1729 7.12431 19.7378C7.54023 19.1884 7.91141 18.6065 8.23431 17.9978C7.63839 17.7781 7.06561 17.5001 6.52431 17.1678C6.67277 17.069 6.81321 16.9587 6.94431 16.8378C8.52277 17.5981 10.2523 17.993 12.0043 17.993C13.7563 17.993 15.4859 17.5981 17.0643 16.8378C17.2043 16.9578 17.3443 17.0678 17.4843 17.1678C16.9401 17.4975 16.3679 17.7785 15.7743 18.0078C16.0838 18.6304 16.4451 19.2258 16.8543 19.7878C18.6786 19.2248 20.3908 18.3484 21.9143 17.1978C22.3327 13.1 21.2683 8.988 18.9143 5.60781C17.6176 4.97655 16.242 4.52248 14.8243 4.25781ZM8.68431 14.8078C8.1839 14.7719 7.71685 14.5435 7.38123 14.1706C7.04561 13.7977 6.86751 13.3092 6.88431 12.8078C6.86497 12.3057 7.0422 11.8159 7.37832 11.4424C7.71445 11.069 8.18297 10.8413 8.68431 10.8078C9.18565 10.8413 9.65417 11.069 9.9903 11.4424C10.3264 11.8159 10.5037 12.3057 10.4843 12.8078C10.5037 13.3099 10.3264 13.7997 9.9903 14.1732C9.65417 14.5467 9.18565 14.7743 8.68431 14.8078ZM15.3243 14.8078C14.8239 14.7719 14.3569 14.5435 14.0212 14.1706C13.6856 13.7977 13.5075 13.3092 13.5243 12.8078C13.505 12.3057 13.6822 11.8159 14.0183 11.4424C14.3544 11.069 14.823 10.8413 15.3243 10.8078C15.8266 10.8388 16.2966 11.0657 16.6333 11.4398C16.9699 11.8138 17.1462 12.3051 17.1243 12.8078C17.1462 13.3106 16.9699 13.8018 16.6333 14.1759C16.2966 14.5499 15.8266 14.7768 15.3243 14.8078Z" fill="white"/>
</svg>
