<svg width="24" height="24" viewBox="0 0 24 24" fill="none" xmlns="http://www.w3.org/2000/svg">
<path d="M19.633 7.99363C19.646 8.16863 19.646 8.34263 19.646 8.51663C19.646 13.8416 15.593 19.9776 8.186 19.9776C5.904 19.9776 3.784 19.3166 2 18.1686C2.324 18.2056 2.636 18.2186 2.973 18.2186C4.78599 18.223 6.54765 17.6168 7.974 16.4976C7.13342 16.4824 6.31858 16.2051 5.64324 15.7044C4.9679 15.2036 4.46578 14.5045 4.207 13.7046C4.456 13.7416 4.706 13.7666 4.968 13.7666C5.329 13.7666 5.692 13.7166 6.029 13.6296C5.11676 13.4454 4.29647 12.951 3.70762 12.2303C3.11876 11.5096 2.79769 10.6073 2.799 9.67663V9.62663C3.336 9.92563 3.959 10.1126 4.619 10.1376C4.06609 9.77021 3.61272 9.27165 3.29934 8.68642C2.98596 8.10118 2.82231 7.44748 2.823 6.78363C2.823 6.03563 3.022 5.34963 3.371 4.75163C4.38314 5.99665 5.6455 7.01519 7.07634 7.74128C8.50717 8.46738 10.0746 8.88484 11.677 8.96663C11.615 8.66663 11.577 8.35563 11.577 8.04363C11.5767 7.51459 11.6807 6.99068 11.8831 6.50187C12.0854 6.01305 12.3821 5.5689 12.7562 5.19481C13.1303 4.82073 13.5744 4.52404 14.0632 4.3217C14.5521 4.11937 15.076 4.01536 15.605 4.01563C16.765 4.01563 17.812 4.50163 18.548 5.28763C19.4498 5.11324 20.3145 4.78405 21.104 4.31463C20.8034 5.24544 20.1738 6.03473 19.333 6.53463C20.1328 6.4434 20.9144 6.23308 21.652 5.91063C21.1011 6.71372 20.4185 7.41797 19.633 7.99363Z" fill="white"/>
</svg>
