<svg width="150" height="150" viewBox="0 0 150 150" fill="none" xmlns="http://www.w3.org/2000/svg">
<rect width="150" height="150" rx="4" fill="#222222"/>
<g clip-path="url(#clip0_879_7)">
<path d="M41.0858 80.0664C40.8474 79.5956 40.609 77.2417 40.609 75.8294C40.609 68.2945 46.0835 61.9383 60.1255 61.9383H67.5034C67.5034 61.9383 65.8371 62.6451 62.029 65.235C58.4592 67.8249 41.0858 80.0664 41.0858 80.0664ZM99.3944 74.417L126.288 54.6406H112.962L92.7292 69.708L87.4943 66.4126H74.8802L86.3035 74.6518L77.4989 81.9507C72.9755 85.717 66.5499 90.8968 57.2684 90.8968C53.4591 90.8968 48.2242 90.19 45.3683 86.8945L88.6838 54.8766H62.5057C46.3219 54.8766 37.9916 63.8227 37.9916 74.8878C37.9916 77.2417 38.4671 80.0664 39.1811 81.4799L21.0938 94.4282H34.8973L43.2277 88.3069C46.3219 92.0743 52.7475 95.3698 59.4115 95.3698C70.5977 95.3698 80.8303 88.3069 84.4001 85.4822L92.4932 79.1248L113.912 94.4282H128.906L99.3944 74.417Z" fill="#FFCF01"/>
</g>
<defs>
<clipPath id="clip0_879_7">
<rect width="107.812" height="107.812" fill="white" transform="translate(21.0938 21.0938)"/>
</clipPath>
</defs>
</svg>
