<svg width="150" height="150" viewBox="0 0 150 150" fill="none" xmlns="http://www.w3.org/2000/svg">
<rect width="150" height="150" rx="4" fill="#F41112"/>
<path d="M44.7425 49.2188H18.75V50.4596C21.7542 50.5902 22.7011 51.0147 22.7011 54.1168V75.2113C22.7011 78.4767 21.7542 78.7379 18.75 78.8685V79.9461H33.3137V78.8685C29.6564 78.7379 28.8074 78.3134 28.8074 75.1786V65.1212H34.0974C38.0485 65.1212 39.9424 66.0682 40.6281 69.6275H41.8363V58.7537H40.6281C40.073 62.0191 38.9954 62.8354 34.0974 62.8354H28.8074V53.0393C28.8074 51.7984 29.0686 51.5372 30.5707 51.5372H35.2076C41.3139 51.5372 42.4241 52.6148 43.5017 56.0108H44.7099L44.7425 49.2188Z" fill="white"/>
<path d="M64.4552 76.8082L58.4795 67.959L61.7449 63.8773C63.9327 61.2976 65.1409 59.9262 67.0675 59.7955V58.5547H58.6428V59.7955C60.1448 59.7955 60.8306 60.22 60.8306 61.167C60.8306 61.9834 59.8836 63.0936 59.0673 63.8773L57.1407 66.0651L54.9529 62.7997C54.3977 62.114 54.0059 61.5589 54.0059 60.8731C54.0059 60.1874 54.8222 59.7955 56.1937 59.7955V58.5547H44.8628V59.7955C46.4955 60.22 47.1812 61.167 47.9976 62.3752L53.5814 70.5387L48.9445 75.9919C47.3118 77.9185 46.4955 78.5716 44.6016 78.8654V79.943H52.8957V78.8654C51.8181 78.8654 50.5772 78.6042 50.5772 77.9185C50.5772 77.2327 51.3936 76.2858 52.765 74.6531L54.6916 72.3347L57.0101 75.7307C57.8264 76.9715 58.2509 77.494 58.2509 77.9185C58.2509 78.4736 57.4346 78.7348 55.9325 78.7348V79.8124H67.492V78.7348C66.5124 78.9961 65.696 78.7348 64.4552 76.8082Z" fill="white"/>
<path d="M83.923 49.2188H69.3594V50.4596C72.4942 50.5902 73.3105 51.0147 73.3105 54.1168V75.2113C73.3105 78.4767 72.4942 78.7379 69.3594 78.8685V79.9461H83.6618V78.8685C80.3964 78.7379 79.5801 78.3134 79.5801 75.1786V67.1458H83.6618C91.564 67.1458 95.7764 64.011 95.7764 58.1659C95.6131 53.1372 92.3477 49.2188 83.923 49.2188ZM79.4168 65.4151V52.7454C79.4168 51.6678 79.8413 50.9821 81.9965 50.9821C86.0782 50.9821 89.213 53.3005 89.213 57.5129C89.213 62.4109 86.6333 65.4151 79.4168 65.4151Z" fill="white"/>
<path d="M110.184 58.1875C107.605 58.1875 105.972 60.212 105.156 62.1386H105.025V58.8732C105.025 58.4487 105.025 58.1875 104.764 58.1875C104.339 58.1875 99.3106 59.559 96.9922 59.9508V61.159C99.0494 61.159 99.5718 61.5835 99.5718 63.8693V76.2451C99.5718 78.1717 98.7555 78.5635 96.9922 78.8248V79.9024H108.29V78.8574C106.233 78.8574 105.025 78.3023 105.025 75.9839V64.0326C105.711 62.955 106.527 62.2692 107.343 62.2692C107.768 62.3019 108.192 62.4325 108.552 62.6937C108.976 62.955 109.499 63.6407 110.739 63.6407C112.078 63.6407 113.189 62.5631 113.189 61.2243C113.189 61.2243 113.189 61.2243 113.189 61.1917C113.319 59.8202 112.372 58.1875 110.184 58.1875Z" fill="white"/>
<path d="M123.234 58.1875C117.095 58.1875 112.883 62.955 112.883 69.4858C112.883 76.0165 117.095 80.784 123.234 80.784C129.373 80.784 133.585 76.0165 133.585 69.4858C133.585 62.955 129.373 58.1875 123.234 58.1875ZM123.234 78.8574C119.969 78.8574 118.761 75.9839 118.761 69.4531C118.761 62.9223 120.132 60.0488 123.234 60.0488C126.5 60.0488 127.74 62.9223 127.74 69.4531C127.871 75.9839 126.5 78.8574 123.234 78.8574Z" fill="white"/>
<path d="M18.8438 90.5859H26.9746V91.8921H23.6112V100.97H22.2071V91.8921H18.8764V90.5859H18.8438Z" fill="white"/>
<path d="M30.2772 93.5275C30.7996 93.2336 31.3874 93.0703 31.9752 93.0703V94.4091C30.6037 94.2459 29.3302 95.2581 29.1996 96.6622C29.1996 96.7276 29.1996 96.7929 29.1996 96.8255V100.973H27.8281V93.1356H29.1996V94.8336C29.3955 94.3112 29.7874 93.854 30.2772 93.5275Z" fill="white"/>
<path d="M37.9166 100.974V99.8637C37.3288 100.647 36.4145 101.007 35.1737 101.007C34.6839 101.007 34.1941 100.909 33.7369 100.68C33.3451 100.484 33.0185 100.19 32.7899 99.8311C32.5614 99.4719 32.4634 99.0474 32.4634 98.5902C32.4307 97.9372 32.7246 97.3167 33.2471 96.9249C33.8675 96.4677 34.6512 96.2391 35.4349 96.2718H37.9166V95.9126C37.9493 95.4228 37.7533 94.9656 37.3941 94.6391C36.9696 94.3126 36.4472 94.1493 35.8921 94.182C35.0104 94.2146 34.1614 94.5085 33.4757 95.031L32.8879 94.084C33.3777 93.7575 33.9002 93.4962 34.4553 93.3003C35.0104 93.137 35.5982 93.0391 36.1859 93.0391C37.1656 93.0391 37.9166 93.2676 38.4717 93.7575C39.0268 94.2799 39.3207 94.9983 39.2881 95.782V100.941L37.9166 100.974ZM37.1003 99.4392C37.5248 99.1454 37.8186 98.7209 37.9166 98.1984V97.4147H35.6308C35.141 97.382 34.6839 97.48 34.2594 97.7086C33.9655 97.9045 33.7696 98.231 33.8022 98.5902C33.8022 98.9494 33.9655 99.3086 34.2594 99.5372C34.6186 99.7984 35.0431 99.929 35.5002 99.8964C36.0227 99.8964 36.6104 99.7658 37.1003 99.4392Z" fill="white"/>
<path d="M49.0591 89.9766V100.981H47.6876V99.4462C47.3938 99.936 47.0019 100.361 46.4794 100.654C45.957 100.948 45.3366 101.079 44.7488 101.079C44.0631 101.079 43.3773 100.916 42.7896 100.556C42.2344 100.23 41.7446 99.7074 41.4507 99.1197C41.1242 98.4666 40.9609 97.7482 40.9609 97.0298C40.9609 96.3114 41.1242 95.593 41.4507 94.9726C41.7446 94.3848 42.2018 93.895 42.7896 93.5685C43.3773 93.242 44.0631 93.046 44.7488 93.0787C45.3692 93.0787 45.957 93.2093 46.5121 93.5032C47.0019 93.7971 47.4264 94.1889 47.6876 94.7114V89.9766H49.0591ZM46.4141 99.5115C46.806 99.2829 47.1652 98.9237 47.3611 98.5319C47.8183 97.6176 47.8183 96.54 47.3611 95.6257C47.1325 95.2012 46.806 94.8746 46.4141 94.6461C45.9896 94.4175 45.5325 94.2869 45.0427 94.2869C44.5529 94.2869 44.0957 94.4175 43.6712 94.6461C43.2794 94.8746 42.9202 95.2338 42.7242 95.6583C42.2671 96.5727 42.2671 97.6176 42.7242 98.5319C42.9528 98.9564 43.2794 99.2829 43.6712 99.5115C44.5202 100.001 45.5325 100.001 46.4141 99.5115Z" fill="white"/>
<path d="M57.7317 94.187C58.3521 94.9053 58.6787 95.9176 58.6787 97.1911C58.6787 97.387 58.6787 97.5503 58.6787 97.6483H52.4744C52.5397 98.3013 52.8663 98.8891 53.3561 99.3136C53.8459 99.7381 54.4663 99.9667 55.1194 99.9667C55.5766 99.9667 56.0011 99.8687 56.4256 99.7055C56.8174 99.5422 57.1766 99.3136 57.4705 98.9871L58.2215 99.7708C57.8297 100.195 57.3399 100.522 56.8174 100.718C56.2296 100.946 55.6419 101.077 55.0214 101.044C54.3031 101.044 53.5847 100.881 52.9642 100.554C52.3765 100.228 51.8867 99.7381 51.5601 99.1504C50.907 97.8442 50.907 96.3095 51.5601 95.036C51.8867 94.4482 52.3765 93.9584 52.9316 93.6318C53.552 93.2726 54.2704 93.1094 54.9561 93.1094C56.197 93.1094 57.1113 93.4686 57.7317 94.187ZM57.4052 96.538C57.4378 95.2645 56.4256 94.2523 55.1521 94.2196C55.0867 94.2196 55.0214 94.2196 54.9561 94.2196C54.3357 94.187 53.7153 94.4155 53.2255 94.8727C52.7683 95.2972 52.4744 95.9176 52.4091 96.538H57.4052Z" fill="white"/>
<path d="M64.5952 90.5859H65.9993V99.6964H70.5382V101.003H64.5625V90.5859H64.5952Z" fill="white"/>
<path d="M73.5404 90.2694C73.867 90.6286 73.867 91.1837 73.5404 91.5429C73.2139 91.8694 72.6588 91.8694 72.2996 91.5429C71.9731 91.1837 71.9731 90.6286 72.2996 90.2694C72.6261 89.9102 73.1812 89.9102 73.5404 90.2694ZM72.2343 93.1429H73.6057V101.013H72.2343V93.1429Z" fill="white"/>
<path d="M81.8112 100.981L79.2968 97.1604L77.7621 98.7605V100.981H76.3906V89.9766H77.7621V96.9972L81.5499 93.144H83.1826L80.2438 96.1808L83.4439 100.981H81.8112Z" fill="white"/>
<path d="M90.4895 94.187C91.11 94.9053 91.4365 95.9176 91.4365 97.1911C91.4365 97.387 91.4365 97.5503 91.4365 97.6483H85.2323C85.2976 98.3013 85.6241 98.8891 86.1139 99.3136C86.6037 99.7381 87.2241 99.9667 87.8772 99.9667C88.3344 99.9667 88.7589 99.8687 89.1834 99.7055C89.5752 99.5422 89.9344 99.3136 90.2283 98.9871L90.9793 99.7708C90.5875 100.195 90.0977 100.522 89.5752 100.718C88.9874 100.946 88.3997 101.077 87.7793 101.044C87.0609 101.044 86.3425 100.881 85.7221 100.554C85.1343 100.228 84.6445 99.7381 84.3179 99.1504C83.6649 97.8442 83.6649 96.3095 84.3179 95.036C84.6445 94.4482 85.1343 93.9584 85.6894 93.6318C86.3098 93.2726 87.0282 93.1094 87.714 93.1094C88.9548 93.1094 89.8691 93.4686 90.4895 94.187ZM90.163 96.538C90.1957 95.2645 89.1834 94.2523 87.9099 94.2196C87.8446 94.2196 87.7793 94.2196 87.714 94.2196C87.0935 94.187 86.4731 94.4155 85.9833 94.8727C85.5261 95.2972 85.2322 95.9176 85.1669 96.538H90.163Z" fill="white"/>
<path d="M101.987 100.974V99.8637C101.399 100.647 100.485 101.007 99.244 101.007C98.7542 101.007 98.2644 100.909 97.8072 100.68C97.4154 100.484 97.0888 100.19 96.8603 99.8311C96.6317 99.4719 96.5337 99.0474 96.5337 98.5902C96.5011 97.9372 96.7949 97.3167 97.3174 96.9249C97.9378 96.4677 98.7215 96.2391 99.5052 96.2718H101.987V95.9126C102.02 95.4228 101.824 94.9656 101.464 94.6391C101.04 94.3126 100.517 94.1493 99.9624 94.182C99.0807 94.2146 98.2317 94.5085 97.546 95.031L96.9582 94.084C97.448 93.7575 97.9705 93.4962 98.5256 93.3003C99.0807 93.137 99.6685 93.0391 100.256 93.0391C101.236 93.0391 101.987 93.2676 102.542 93.7575C103.097 94.2799 103.391 94.9983 103.358 95.782V100.941L101.987 100.974ZM101.171 99.4392C101.595 99.1454 101.889 98.7209 101.987 98.1984V97.4147H99.6685C99.1787 97.382 98.7215 97.48 98.297 97.7086C98.0031 97.9045 97.8072 98.231 97.8399 98.5902C97.8399 98.9494 98.0031 99.3086 98.297 99.5372C98.6562 99.7984 99.0807 99.929 99.5379 99.8964C100.126 99.8964 100.681 99.7658 101.171 99.4392Z" fill="white"/>
<path d="M116.88 91.5003C117.598 92.1533 117.99 93.1003 117.958 94.0799C117.958 95.2228 117.598 96.1371 116.88 96.7902C116.162 97.4433 115.182 97.7371 113.876 97.7371H111.296V100.97H109.859V90.5859H113.843C115.149 90.5859 116.162 90.8798 116.88 91.5003ZM115.835 95.8759C116.325 95.4514 116.586 94.7983 116.553 94.1452C116.586 93.4921 116.325 92.8717 115.835 92.4472C115.345 92.0554 114.692 91.8921 113.778 91.8921H111.263V96.4636H113.778C114.692 96.4636 115.378 96.2677 115.835 95.8759Z" fill="white"/>
<path d="M122.16 93.5275C122.682 93.2336 123.27 93.0703 123.858 93.0703V94.4091C122.487 94.2459 121.246 95.2581 121.082 96.6622C121.082 96.7276 121.082 96.7929 121.082 96.8582V101.005H119.711V93.1683H121.082V94.8663C121.278 94.3112 121.67 93.854 122.16 93.5275Z" fill="white"/>
<path d="M130.678 93.5846C131.265 93.9112 131.755 94.401 132.114 94.9887C132.8 96.2622 132.8 97.8296 132.114 99.1031C131.788 99.6909 131.298 100.181 130.678 100.507C129.371 101.193 127.804 101.193 126.498 100.507C125.91 100.181 125.42 99.6909 125.061 99.1031C124.375 97.797 124.375 96.2622 125.061 94.9887C125.388 94.401 125.878 93.9112 126.498 93.5846C127.804 92.8989 129.371 92.8989 130.678 93.5846ZM127.216 94.6295C126.824 94.8581 126.498 95.2173 126.269 95.6092C126.041 96.0663 125.943 96.5561 125.943 97.0459C125.943 97.5357 126.041 98.0582 126.269 98.5154C126.465 98.9399 126.792 99.2664 127.216 99.495C128.065 99.9521 129.11 99.9521 129.959 99.495C130.351 99.2664 130.678 98.9072 130.906 98.5154C131.135 98.0582 131.265 97.5684 131.233 97.0459C131.233 96.5561 131.135 96.0663 130.906 95.6092C130.71 95.1846 130.384 94.8581 129.959 94.6295C129.11 94.1724 128.065 94.1724 127.216 94.6295Z" fill="white"/>
</svg>
