<svg width="150" height="150" viewBox="0 0 150 150" fill="none" xmlns="http://www.w3.org/2000/svg">
<rect width="150" height="150" rx="4" fill="#00346D"/>
<path d="M124.219 49.2738L123.074 49.2554C120.972 49.2371 118.983 50.1726 117.689 51.7868L101.532 72.0376L85.8263 51.8235C84.5503 50.1909 82.58 49.2188 80.4784 49.2188H79.3337L99.2618 74.8624L78.996 100.268L80.1218 100.286C82.2235 100.304 84.2125 99.3688 85.5073 97.7546L101.495 77.724L117.407 98.1949C118.683 99.8274 120.653 100.781 122.755 100.781H123.881L103.747 74.9175L124.219 49.2738ZM39.1023 70.6985C39.1023 70.0932 38.5957 69.598 37.9764 69.598H29.2509C28.6316 69.598 28.125 70.0932 28.125 70.6985V79.2464C28.125 79.8518 28.6316 80.347 29.2509 80.347H37.9764C38.5957 80.347 39.1023 79.8518 39.1023 79.2464V70.6985ZM76.2938 80.3287H40.2282C39.609 80.3287 39.1023 80.8239 39.1023 81.4293V99.6073C39.1023 100.213 39.609 100.708 40.2282 100.708H50.3236C50.9428 100.708 51.4495 100.213 51.4495 99.6073V91.6097C51.4495 91.0044 51.9561 90.5091 52.5753 90.5091H60.3064C69.426 90.5091 74.9803 84.731 77.157 81.8695C77.6449 81.2091 77.1383 80.3287 76.2938 80.3287ZM40.2282 69.598H50.3236C50.9428 69.598 51.4495 69.1027 51.4495 68.4974V60.408C51.4495 59.8027 51.9561 59.3075 52.5753 59.3075H61.1883C67.2681 59.3075 68.7129 65.7459 69.0507 68.3323C69.1258 68.9193 69.6324 69.3778 70.2329 69.3778H80.3095C80.8912 69.3962 81.3791 68.9376 81.3978 68.3506V68.2406C80.5722 59.8394 74.1922 49.2188 64.3408 49.2188H40.2282C39.609 49.2188 39.1023 49.714 39.1023 50.3193V68.4974C39.1023 69.1027 39.609 69.598 40.2282 69.598Z" fill="white"/>
</svg>
