<svg width="150" height="150" viewBox="0 0 150 150" fill="none" xmlns="http://www.w3.org/2000/svg">
<rect width="150" height="150" rx="4" fill="#2E55A2"/>
<path d="M66.049 28.2706C61.1524 28.6787 56.0579 31.3743 52.2866 35.5537C50.6914 37.3219 49.0345 40.1412 48.3421 42.2927C48.169 42.8368 47.1797 46.6206 46.1534 50.7011C45.1271 54.7816 44.039 59.0599 43.7422 60.2222C43.4455 61.3722 40.6262 72.4761 37.4854 84.8908C34.3447 97.3054 30.9566 110.697 29.955 114.666L28.125 121.875L36.9908 121.838L45.8443 121.788L47.3405 121.405C51.7425 120.255 55.0316 118.215 58.5062 114.505C59.9282 112.984 61.6841 110.029 62.3271 108.075C62.6486 107.111 62.9824 105.837 72.2687 69.1252C73.2084 65.3785 75.1003 57.9223 76.4605 52.5558C77.8206 47.177 79.7496 39.5848 80.7265 35.6774C81.7157 31.77 82.5441 28.4685 82.5812 28.3448C82.6431 28.147 82.2226 28.1346 74.9396 28.147C70.6983 28.1593 66.7044 28.2088 66.049 28.2706Z" fill="white"/>
<path d="M105.09 28.2658C97.4983 28.9335 89.8813 34.943 87.4825 42.1642C87.3465 42.5723 85.8874 48.2232 84.2428 54.7149C81.1886 66.7833 79.9521 71.6675 79.8408 72.0509C79.779 72.2611 80.1994 72.2734 87.4207 72.2734C91.6248 72.2734 95.6559 72.2116 96.3854 72.1498C98.7966 71.9148 101.777 70.9998 103.903 69.8375C106.067 68.6381 108.602 66.6226 110.222 64.7925C111.768 63.049 113.4 60.2174 114.08 58.1153C114.253 57.5712 115.267 53.6762 116.33 49.4597C117.394 45.2432 119.038 38.7267 119.991 34.9924C120.93 31.2458 121.709 28.1792 121.709 28.1545C121.709 28.0803 106.055 28.1792 105.09 28.2658Z" fill="white"/>
</svg>
